  0
SECTION
  2
HEADER
  9
$ACADVER
  1
AC1014
  9
$HANDSEED
  5
FFFF
  9
$MEASUREMENT
 70
     1
  0
ENDSEC
  0
SECTION
  2
TABLES
  0
TABLE
  2
VPORT
  5
8
330
0
100
AcDbSymbolTable
 70
     4
  0
VPORT
  5
2E
330
8
100
AcDbSymbolTableRecord
100
AcDbViewportTableRecord
  2
*ACTIVE
 70
     0
 10
0.0
 20
0.0
 11
1.0
 21
1.0
 12
210.0
 22
148.5
 13
0.0
 23
0.0
 14
10.0
 24
10.0
 15
10.0
 25
10.0
 16
0.0
 26
0.0
 36
1.0
 17
0.0
 27
0.0
 37
0.0
 40
341.0
 41
1.24
 42
50.0
 43
0.0
 44
0.0
 50
0.0
 51
0.0
 71
     0
 72
   100
 73
     1
 74
     3
 75
     0
 76
     0
 77
     0
 78
     0
  0
ENDTAB
  0
TABLE
  2
LTYPE
  5
5
330
0
100
AcDbSymbolTable
 70
     1
  0
LTYPE
  5
14
330
5
100
AcDbSymbolTableRecord
100
AcDbLinetypeTableRecord
  2
BYBLOCK
 70
     0
  3

 72
    65
 73
     0
 40
0.0
  0
LTYPE
  5
15
330
5
100
AcDbSymbolTableRecord
100
AcDbLinetypeTableRecord
  2
BYLAYER
 70
     0
  3

 72
    65
 73
     0
 40
0.0
  0
LTYPE
  5
16
330
5
100
AcDbSymbolTableRecord
100
AcDbLinetypeTableRecord
  2
CONTINUOUS
 70
     0
  3
Solid line
 72
    65
 73
     0
 40
0.0
  0
ENDTAB
  0
TABLE
  2
LAYER
  5
2
100
AcDbSymbolTable
 70
2
  0
LAYER
  5
50
100
AcDbSymbolTableRecord
100
AcDbLayerTableRecord
  2
0
 70
0
  6
CONTINUOUS
  0
LAYER
  5
51
100
AcDbSymbolTableRecord
100
AcDbLayerTableRecord
  2
Layer_1
 70
0
  6
CONTINUOUS
  0
ENDTAB
  0
TABLE
  2
STYLE
  5
3
330
0
100
AcDbSymbolTable
 70
     1
  0
STYLE
  5
11
330
3
100
AcDbSymbolTableRecord
100
AcDbTextStyleTableRecord
  2
STANDARD
 70
     0
 40
0.0
 41
1.0
 50
0.0
 71
     0
 42
2.5
  3
txt
  4

  0
ENDTAB
  0
TABLE
  2
VIEW
  5
6
330
0
100
AcDbSymbolTable
 70
     0
  0
ENDTAB
  0
TABLE
  2
UCS
  5
7
330
0
100
AcDbSymbolTable
 70
     0
  0
ENDTAB
  0
TABLE
  2
APPID
  5
9
330
0
100
AcDbSymbolTable
 70
     2
  0
APPID
  5
12
330
9
100
AcDbSymbolTableRecord
100
AcDbRegAppTableRecord
  2
ACAD
 70
     0
  0
ENDTAB
  0
TABLE
  2
DIMSTYLE
  5
A
330
0
100
AcDbSymbolTable
 70
     1
  0
DIMSTYLE
105
27
330
A
100
AcDbSymbolTableRecord
100
AcDbDimStyleTableRecord
  2
ISO-25
 70
     0
  3

  4

  5

  6

  7

 40
1.0
 41
2.5
 42
0.625
 43
3.75
 44
1.25
 45
0.0
 46
0.0
 47
0.0
 48
0.0
140
2.5
141
2.5
142
0.0
143
0.03937007874016
144
1.0
145
0.0
146
1.0
147
0.625
 71
     0
 72
     0
 73
     0
 74
     0
 75
     0
 76
     0
 77
     1
 78
     8
170
     0
171
     3
172
     1
173
     0
174
     0
175
     0
176
     0
177
     0
178
     0
270
     2
271
     2
272
     2
273
     2
274
     3
340
11
275
     0
280
     0
281
     0
282
     0
283
     0
284
     8
285
     0
286
     0
287
     3
288
     0
  0
ENDTAB
  0
TABLE
  2
BLOCK_RECORD
  5
1
330
0
100
AcDbSymbolTable
 70
     1
  0
BLOCK_RECORD
  5
1F
330
1
100
AcDbSymbolTableRecord
100
AcDbBlockTableRecord
  2
*MODEL_SPACE
  0
BLOCK_RECORD
  5
1B
330
1
100
AcDbSymbolTableRecord
100
AcDbBlockTableRecord
  2
*PAPER_SPACE
  0
ENDTAB
  0
ENDSEC
  0
SECTION
  2
BLOCKS
  0
BLOCK
  5
20
330
1F
100
AcDbEntity
  8
0
100
AcDbBlockBegin
  2
*MODEL_SPACE
 70
     0
 10
0.0
 20
0.0
 30
0.0
  3
*MODEL_SPACE
  1

  0
ENDBLK
  5
21
330
1F
100
AcDbEntity
  8
0
100
AcDbBlockEnd
  0
BLOCK
  5
1C
330
1B
100
AcDbEntity
 67
     1
  8
0
100
AcDbBlockBegin
  2
*PAPER_SPACE
  1

  0
ENDBLK
  5
1D
330
1B
100
AcDbEntity
 67
     1
  8
0
100
AcDbBlockEnd
  0
ENDSEC
  0
SECTION
  2
ENTITIES
  0
LWPOLYLINE
  5
100
100
AcDbEntity
  8
Layer_1
 62
7
100
AcDbPolyline
 90
81
 70
1
 10
23.300708
 20
-23.496742
 30
0.0
 10
20.490932
 20
-25.275250
 30
0.0
 10
17.361982
 20
-25.721760
 30
0.0
 10
14.127703
 20
-25.173753
 30
0.0
 10
11.001942
 20
-23.968677
 30
0.0
 10
8.198544
 20
-22.443979
 30
0.0
 10
5.931356
 20
-20.937105
 30
0.0
 10
4.414223
 20
-19.785504
 30
0.0
 10
3.860990
 20
-19.326656
 30
0.0
 10
3.489553
 20
-19.963822
 30
0.0
 10
2.433198
 20
-21.599083
 30
0.0
 10
0.778863
 20
-23.818102
 30
0.0
 10
-1.386519
 20
-26.206612
 30
0.0
 10
-3.976011
 20
-28.350242
 30
0.0
 10
-6.902677
 20
-29.834724
 30
0.0
 10
-10.079581
 20
-30.245652
 30
0.0
 10
-13.419788
 20
-29.168793
 30
0.0
 10
-16.105385
 20
-26.818250
 30
0.0
 10
-17.556499
 20
-23.871270
 30
0.0
 10
-18.043254
 20
-20.608315
 30
0.0
 10
-17.835776
 20
-17.309778
 30
0.0
 10
-17.204188
 20
-14.256121
 30
0.0
 10
-16.418614
 20
-11.727772
 30
0.0
 10
-15.749178
 20
-10.005090
 30
0.0
 10
-15.466005
 20
-9.368538
 30
0.0
 10
-16.165912
 20
-9.215032
 30
0.0
 10
-17.996834
 20
-8.722409
 30
0.0
 10
-20.555575
 20
-7.842613
 30
0.0
 10
-23.438937
 20
-6.527622
 30
0.0
 10
-26.243724
 20
-4.729312
 30
0.0
 10
-28.566738
 20
-2.399696
 30
0.0
 10
-30.004786
 20
0.509351
 30
0.0
 10
-30.154667
 20
4.045849
 30
0.0
 10
-28.892432
 20
7.352566
 30
0.0
 10
-26.607633
 20
9.655871
 30
0.0
 10
-23.667314
 20
11.129105
 30
0.0
 10
-20.438522
 20
11.945679
 30
0.0
 10
-17.288306
 20
12.278934
 30
0.0
 10
-14.583712
 20
12.302451
 30
0.0
 10
-12.691787
 20
12.189332
 30
0.0
 10
-11.979580
 20
12.113091
 30
0.0
 10
-12.021083
 20
12.845686
 30
0.0
 10
-12.048638
 20
14.786800
 30
0.0
 10
-11.916815
 20
17.551304
 30
0.0
 10
-11.480180
 20
20.754105
 30
0.0
 10
-10.593303
 20
24.010039
 30
0.0
 10
-9.110750
 20
26.934038
 30
0.0
 10
-6.887090
 20
29.140985
 30
0.0
 10
-3.776892
 20
30.245768
 30
0.0
 10
-0.448569
 20
29.934850
 30
0.0
 10
2.350146
 20
28.409501
 30
0.0
 10
4.645708
 20
26.056804
 30
0.0
 10
6.464572
 20
23.263845
 30
0.0
 10
7.833193
 20
20.417748
 30
0.0
 10
8.778026
 20
17.905554
 30
0.0
 10
9.325525
 20
16.114367
 30
0.0
 10
9.502146
 20
15.431293
 30
0.0
 10
10.162182
 20
15.710767
 30
0.0
 10
11.941540
 20
16.369813
 30
0.0
 10
14.539092
 20
17.139285
 30
0.0
 10
17.653713
 20
17.750071
 30
0.0
 10
20.984275
 20
17.932990
 30
0.0
 10
24.229652
 20
17.418963
 30
0.0
 10
27.088718
 20
15.938844
 30
0.0
 10
29.260346
 20
13.223521
 30
0.0
 10
30.154668
 20
9.862988
 30
0.0
 10
29.646291
 20
6.681932
 30
0.0
 10
28.130802
 20
3.763104
 30
0.0
 10
26.003785
 20
1.189323
 30
0.0
 10
23.660826
 20
-0.956590
 30
0.0
 10
21.497511
 20
-2.591919
 30
0.0
 10
19.909426
 20
-3.633810
 30
0.0
 10
19.292157
 20
-3.999511
 30
0.0
 10
19.746467
 20
-4.557606
 30
0.0
 10
20.885583
 20
-6.087076
 30
0.0
 10
22.373782
 20
-8.370647
 30
0.0
 10
23.875340
 20
-11.191114
 30
0.0
 10
25.054535
 20
-14.331170
 30
0.0
 10
25.575644
 20
-17.573608
 30
0.0
 10
25.102943
 20
-20.701189
 30
0.0
 10
23.300708
 20
-23.496742
 30
0.0
  0
ENDSEC
  0
SECTION
  2
OBJECTS
  0
DICTIONARY
  5
C
330
0
100
AcDbDictionary
  3
ACAD_GROUP
350
D
  3
ACAD_MLINESTYLE
350
17
  0
DICTIONARY
  5
D
330
C
100
AcDbDictionary
  0
DICTIONARY
  5
1A
330
C
100
AcDbDictionary
  0
DICTIONARY
  5
17
330
C
100
AcDbDictionary
  3
STANDARD
350
18
  0
DICTIONARY
  5
19
330
C
100
AcDbDictionary
  0
ENDSEC
  0
EOF
