  0
SECTION
  2
HEADER
  9
$ACADVER
  1
AC1014
  9
$HANDSEED
  5
FFFF
  9
$MEASUREMENT
 70
     1
  0
ENDSEC
  0
SECTION
  2
TABLES
  0
TABLE
  2
VPORT
  5
8
330
0
100
AcDbSymbolTable
 70
     4
  0
VPORT
  5
2E
330
8
100
AcDbSymbolTableRecord
100
AcDbViewportTableRecord
  2
*ACTIVE
 70
     0
 10
0.0
 20
0.0
 11
1.0
 21
1.0
 12
210.0
 22
148.5
 13
0.0
 23
0.0
 14
10.0
 24
10.0
 15
10.0
 25
10.0
 16
0.0
 26
0.0
 36
1.0
 17
0.0
 27
0.0
 37
0.0
 40
341.0
 41
1.24
 42
50.0
 43
0.0
 44
0.0
 50
0.0
 51
0.0
 71
     0
 72
   100
 73
     1
 74
     3
 75
     0
 76
     0
 77
     0
 78
     0
  0
ENDTAB
  0
TABLE
  2
LTYPE
  5
5
330
0
100
AcDbSymbolTable
 70
     1
  0
LTYPE
  5
14
330
5
100
AcDbSymbolTableRecord
100
AcDbLinetypeTableRecord
  2
BYBLOCK
 70
     0
  3

 72
    65
 73
     0
 40
0.0
  0
LTYPE
  5
15
330
5
100
AcDbSymbolTableRecord
100
AcDbLinetypeTableRecord
  2
BYLAYER
 70
     0
  3

 72
    65
 73
     0
 40
0.0
  0
LTYPE
  5
16
330
5
100
AcDbSymbolTableRecord
100
AcDbLinetypeTableRecord
  2
CONTINUOUS
 70
     0
  3
Solid line
 72
    65
 73
     0
 40
0.0
  0
ENDTAB
  0
TABLE
  2
LAYER
  5
2
100
AcDbSymbolTable
 70
2
  0
LAYER
  5
50
100
AcDbSymbolTableRecord
100
AcDbLayerTableRecord
  2
0
 70
0
  6
CONTINUOUS
  0
LAYER
  5
51
100
AcDbSymbolTableRecord
100
AcDbLayerTableRecord
  2
Layer_1
 70
0
  6
CONTINUOUS
  0
ENDTAB
  0
TABLE
  2
STYLE
  5
3
330
0
100
AcDbSymbolTable
 70
     1
  0
STYLE
  5
11
330
3
100
AcDbSymbolTableRecord
100
AcDbTextStyleTableRecord
  2
STANDARD
 70
     0
 40
0.0
 41
1.0
 50
0.0
 71
     0
 42
2.5
  3
txt
  4

  0
ENDTAB
  0
TABLE
  2
VIEW
  5
6
330
0
100
AcDbSymbolTable
 70
     0
  0
ENDTAB
  0
TABLE
  2
UCS
  5
7
330
0
100
AcDbSymbolTable
 70
     0
  0
ENDTAB
  0
TABLE
  2
APPID
  5
9
330
0
100
AcDbSymbolTable
 70
     2
  0
APPID
  5
12
330
9
100
AcDbSymbolTableRecord
100
AcDbRegAppTableRecord
  2
ACAD
 70
     0
  0
ENDTAB
  0
TABLE
  2
DIMSTYLE
  5
A
330
0
100
AcDbSymbolTable
 70
     1
  0
DIMSTYLE
105
27
330
A
100
AcDbSymbolTableRecord
100
AcDbDimStyleTableRecord
  2
ISO-25
 70
     0
  3

  4

  5

  6

  7

 40
1.0
 41
2.5
 42
0.625
 43
3.75
 44
1.25
 45
0.0
 46
0.0
 47
0.0
 48
0.0
140
2.5
141
2.5
142
0.0
143
0.03937007874016
144
1.0
145
0.0
146
1.0
147
0.625
 71
     0
 72
     0
 73
     0
 74
     0
 75
     0
 76
     0
 77
     1
 78
     8
170
     0
171
     3
172
     1
173
     0
174
     0
175
     0
176
     0
177
     0
178
     0
270
     2
271
     2
272
     2
273
     2
274
     3
340
11
275
     0
280
     0
281
     0
282
     0
283
     0
284
     8
285
     0
286
     0
287
     3
288
     0
  0
ENDTAB
  0
TABLE
  2
BLOCK_RECORD
  5
1
330
0
100
AcDbSymbolTable
 70
     1
  0
BLOCK_RECORD
  5
1F
330
1
100
AcDbSymbolTableRecord
100
AcDbBlockTableRecord
  2
*MODEL_SPACE
  0
BLOCK_RECORD
  5
1B
330
1
100
AcDbSymbolTableRecord
100
AcDbBlockTableRecord
  2
*PAPER_SPACE
  0
ENDTAB
  0
ENDSEC
  0
SECTION
  2
BLOCKS
  0
BLOCK
  5
20
330
1F
100
AcDbEntity
  8
0
100
AcDbBlockBegin
  2
*MODEL_SPACE
 70
     0
 10
0.0
 20
0.0
 30
0.0
  3
*MODEL_SPACE
  1

  0
ENDBLK
  5
21
330
1F
100
AcDbEntity
  8
0
100
AcDbBlockEnd
  0
BLOCK
  5
1C
330
1B
100
AcDbEntity
 67
     1
  8
0
100
AcDbBlockBegin
  2
*PAPER_SPACE
  1

  0
ENDBLK
  5
1D
330
1B
100
AcDbEntity
 67
     1
  8
0
100
AcDbBlockEnd
  0
ENDSEC
  0
SECTION
  2
ENTITIES
  0
LWPOLYLINE
  5
100
100
AcDbEntity
  8
Layer_1
 62
7
100
AcDbPolyline
 90
129
 70
1
 10
30.156997
 20
-0.489993
 30
0.0
 10
30.118149
 20
-1.985771
 30
0.0
 10
30.002850
 20
-3.461934
 30
0.0
 10
29.812979
 20
-4.916620
 30
0.0
 10
29.550411
 20
-6.347995
 30
0.0
 10
29.217022
 20
-7.754280
 30
0.0
 10
28.814689
 20
-9.133641
 30
0.0
 10
28.345285
 20
-10.484187
 30
0.0
 10
27.810689
 20
-11.804169
 30
0.0
 10
27.212776
 20
-13.091751
 30
0.0
 10
26.553422
 20
-14.345044
 30
0.0
 10
25.834503
 20
-15.562296
 30
0.0
 10
25.057895
 20
-16.741618
 30
0.0
 10
24.225473
 20
-17.881232
 30
0.0
 10
23.339115
 20
-18.979302
 30
0.0
 10
22.400695
 20
-20.033995
 30
0.0
 10
21.412089
 20
-21.043475
 30
0.0
 10
20.375175
 20
-22.005910
 30
0.0
 10
19.291827
 20
-22.919491
 30
0.0
 10
18.163922
 20
-23.782414
 30
0.0
 10
16.993335
 20
-24.592815
 30
0.0
 10
15.781943
 20
-25.348860
 30
0.0
 10
14.531622
 20
-26.048771
 30
0.0
 10
13.244247
 20
-26.690657
 30
0.0
 10
11.921694
 20
-27.272769
 30
0.0
 10
10.565841
 20
-27.793215
 30
0.0
 10
9.178561
 20
-28.250189
 30
0.0
 10
7.761732
 20
-28.641885
 30
0.0
 10
6.317229
 20
-28.966441
 30
0.0
 10
4.846929
 20
-29.222078
 30
0.0
 10
3.352707
 20
-29.406933
 30
0.0
 10
1.836439
 20
-29.519173
 30
0.0
 10
0.300002
 20
-29.556991
 30
0.0
 10
-1.236435
 20
-29.519173
 30
0.0
 10
-2.752703
 20
-29.406933
 30
0.0
 10
-4.246925
 20
-29.222078
 30
0.0
 10
-5.717225
 20
-28.966441
 30
0.0
 10
-7.161728
 20
-28.641885
 30
0.0
 10
-8.578557
 20
-28.250189
 30
0.0
 10
-9.965836
 20
-27.793215
 30
0.0
 10
-11.321690
 20
-27.272769
 30
0.0
 10
-12.644243
 20
-26.690657
 30
0.0
 10
-13.931618
 20
-26.048771
 30
0.0
 10
-15.181939
 20
-25.348860
 30
0.0
 10
-16.393331
 20
-24.592815
 30
0.0
 10
-17.563918
 20
-23.782414
 30
0.0
 10
-18.691823
 20
-22.919491
 30
0.0
 10
-19.775171
 20
-22.005910
 30
0.0
 10
-20.812085
 20
-21.043475
 30
0.0
 10
-21.800690
 20
-20.033995
 30
0.0
 10
-22.739110
 20
-18.979302
 30
0.0
 10
-23.625469
 20
-17.881232
 30
0.0
 10
-24.457891
 20
-16.741618
 30
0.0
 10
-25.234499
 20
-15.562296
 30
0.0
 10
-25.953418
 20
-14.345044
 30
0.0
 10
-26.612772
 20
-13.091751
 30
0.0
 10
-27.210685
 20
-11.804169
 30
0.0
 10
-27.745281
 20
-10.484187
 30
0.0
 10
-28.214684
 20
-9.133641
 30
0.0
 10
-28.617017
 20
-7.754280
 30
0.0
 10
-28.950406
 20
-6.347995
 30
0.0
 10
-29.212975
 20
-4.916620
 30
0.0
 10
-29.402845
 20
-3.461934
 30
0.0
 10
-29.518144
 20
-1.985771
 30
0.0
 10
-29.556992
 20
-0.489993
 30
0.0
 10
-29.518142
 20
1.005785
 30
0.0
 10
-29.402842
 20
2.481948
 30
0.0
 10
-29.212972
 20
3.936634
 30
0.0
 10
-28.950404
 20
5.368009
 30
0.0
 10
-28.617012
 20
6.774294
 30
0.0
 10
-28.214679
 20
8.153627
 30
0.0
 10
-27.745275
 20
9.504202
 30
0.0
 10
-27.210679
 20
10.824183
 30
0.0
 10
-26.612766
 20
12.111737
 30
0.0
 10
-25.953412
 20
13.365058
 30
0.0
 10
-25.234492
 20
14.582311
 30
0.0
 10
-24.457884
 20
15.761638
 30
0.0
 10
-23.625463
 20
16.901249
 30
0.0
 10
-22.739104
 20
17.999311
 30
0.0
 10
-21.800684
 20
19.053995
 30
0.0
 10
-20.812079
 20
20.063473
 30
0.0
 10
-19.775165
 20
21.025918
 30
0.0
 10
-18.691817
 20
21.939508
 30
0.0
 10
-17.563913
 20
22.802414
 30
0.0
 10
-16.393326
 20
23.612812
 30
0.0
 10
-15.181935
 20
24.368871
 30
0.0
 10
-13.931614
 20
25.068768
 30
0.0
 10
-12.644239
 20
25.710674
 30
0.0
 10
-11.321687
 20
26.292769
 30
0.0
 10
-9.965834
 20
26.813221
 30
0.0
 10
-8.578555
 20
27.270203
 30
0.0
 10
-7.161726
 20
27.661891
 30
0.0
 10
-5.717224
 20
27.986458
 30
0.0
 10
-4.246924
 20
28.242081
 30
0.0
 10
-2.752702
 20
28.426928
 30
0.0
 10
-1.236435
 20
28.539176
 30
0.0
 10
0.300002
 20
28.576997
 30
0.0
 10
1.836439
 20
28.539176
 30
0.0
 10
3.352706
 20
28.426928
 30
0.0
 10
4.846928
 20
28.242081
 30
0.0
 10
6.317228
 20
27.986458
 30
0.0
 10
7.761730
 20
27.661891
 30
0.0
 10
9.178559
 20
27.270203
 30
0.0
 10
10.565838
 20
26.813221
 30
0.0
 10
11.921691
 20
26.292769
 30
0.0
 10
13.244243
 20
25.710677
 30
0.0
 10
14.531618
 20
25.068768
 30
0.0
 10
15.781939
 20
24.368871
 30
0.0
 10
16.993330
 20
23.612812
 30
0.0
 10
18.163916
 20
22.802417
 30
0.0
 10
19.291822
 20
21.939508
 30
0.0
 10
20.375169
 20
21.025918
 30
0.0
 10
21.412083
 20
20.063473
 30
0.0
 10
22.400688
 20
19.053995
 30
0.0
 10
23.339108
 20
17.999311
 30
0.0
 10
24.225467
 20
16.901252
 30
0.0
 10
25.057888
 20
15.761638
 30
0.0
 10
25.834497
 20
14.582311
 30
0.0
 10
26.553416
 20
13.365058
 30
0.0
 10
27.212770
 20
12.111737
 30
0.0
 10
27.810684
 20
10.824183
 30
0.0
 10
28.345280
 20
9.504202
 30
0.0
 10
28.814683
 20
8.153627
 30
0.0
 10
29.217016
 20
6.774294
 30
0.0
 10
29.550408
 20
5.368009
 30
0.0
 10
29.812976
 20
3.936634
 30
0.0
 10
30.002847
 20
2.481948
 30
0.0
 10
30.118146
 20
1.005785
 30
0.0
 10
30.156997
 20
-0.489993
 30
0.0
  0
ENDSEC
  0
SECTION
  2
OBJECTS
  0
DICTIONARY
  5
C
330
0
100
AcDbDictionary
  3
ACAD_GROUP
350
D
  3
ACAD_MLINESTYLE
350
17
  0
DICTIONARY
  5
D
330
C
100
AcDbDictionary
  0
DICTIONARY
  5
1A
330
C
100
AcDbDictionary
  0
DICTIONARY
  5
17
330
C
100
AcDbDictionary
  3
STANDARD
350
18
  0
DICTIONARY
  5
19
330
C
100
AcDbDictionary
  0
ENDSEC
  0
EOF
