  0
SECTION
  2
HEADER
  9
$ACADVER
  1
AC1014
  9
$HANDSEED
  5
FFFF
  9
$MEASUREMENT
 70
     1
  0
ENDSEC
  0
SECTION
  2
TABLES
  0
TABLE
  2
VPORT
  5
8
330
0
100
AcDbSymbolTable
 70
     4
  0
VPORT
  5
2E
330
8
100
AcDbSymbolTableRecord
100
AcDbViewportTableRecord
  2
*ACTIVE
 70
     0
 10
0.0
 20
0.0
 11
1.0
 21
1.0
 12
210.0
 22
148.5
 13
0.0
 23
0.0
 14
10.0
 24
10.0
 15
10.0
 25
10.0
 16
0.0
 26
0.0
 36
1.0
 17
0.0
 27
0.0
 37
0.0
 40
341.0
 41
1.24
 42
50.0
 43
0.0
 44
0.0
 50
0.0
 51
0.0
 71
     0
 72
   100
 73
     1
 74
     3
 75
     0
 76
     0
 77
     0
 78
     0
  0
ENDTAB
  0
TABLE
  2
LTYPE
  5
5
330
0
100
AcDbSymbolTable
 70
     1
  0
LTYPE
  5
14
330
5
100
AcDbSymbolTableRecord
100
AcDbLinetypeTableRecord
  2
BYBLOCK
 70
     0
  3

 72
    65
 73
     0
 40
0.0
  0
LTYPE
  5
15
330
5
100
AcDbSymbolTableRecord
100
AcDbLinetypeTableRecord
  2
BYLAYER
 70
     0
  3

 72
    65
 73
     0
 40
0.0
  0
LTYPE
  5
16
330
5
100
AcDbSymbolTableRecord
100
AcDbLinetypeTableRecord
  2
CONTINUOUS
 70
     0
  3
Solid line
 72
    65
 73
     0
 40
0.0
  0
ENDTAB
  0
TABLE
  2
LAYER
  5
2
100
AcDbSymbolTable
 70
2
  0
LAYER
  5
50
100
AcDbSymbolTableRecord
100
AcDbLayerTableRecord
  2
0
 70
0
  6
CONTINUOUS
  0
LAYER
  5
51
100
AcDbSymbolTableRecord
100
AcDbLayerTableRecord
  2
Layer_1
 70
0
  6
CONTINUOUS
  0
ENDTAB
  0
TABLE
  2
STYLE
  5
3
330
0
100
AcDbSymbolTable
 70
     1
  0
STYLE
  5
11
330
3
100
AcDbSymbolTableRecord
100
AcDbTextStyleTableRecord
  2
STANDARD
 70
     0
 40
0.0
 41
1.0
 50
0.0
 71
     0
 42
2.5
  3
txt
  4

  0
ENDTAB
  0
TABLE
  2
VIEW
  5
6
330
0
100
AcDbSymbolTable
 70
     0
  0
ENDTAB
  0
TABLE
  2
UCS
  5
7
330
0
100
AcDbSymbolTable
 70
     0
  0
ENDTAB
  0
TABLE
  2
APPID
  5
9
330
0
100
AcDbSymbolTable
 70
     2
  0
APPID
  5
12
330
9
100
AcDbSymbolTableRecord
100
AcDbRegAppTableRecord
  2
ACAD
 70
     0
  0
ENDTAB
  0
TABLE
  2
DIMSTYLE
  5
A
330
0
100
AcDbSymbolTable
 70
     1
  0
DIMSTYLE
105
27
330
A
100
AcDbSymbolTableRecord
100
AcDbDimStyleTableRecord
  2
ISO-25
 70
     0
  3

  4

  5

  6

  7

 40
1.0
 41
2.5
 42
0.625
 43
3.75
 44
1.25
 45
0.0
 46
0.0
 47
0.0
 48
0.0
140
2.5
141
2.5
142
0.0
143
0.03937007874016
144
1.0
145
0.0
146
1.0
147
0.625
 71
     0
 72
     0
 73
     0
 74
     0
 75
     0
 76
     0
 77
     1
 78
     8
170
     0
171
     3
172
     1
173
     0
174
     0
175
     0
176
     0
177
     0
178
     0
270
     2
271
     2
272
     2
273
     2
274
     3
340
11
275
     0
280
     0
281
     0
282
     0
283
     0
284
     8
285
     0
286
     0
287
     3
288
     0
  0
ENDTAB
  0
TABLE
  2
BLOCK_RECORD
  5
1
330
0
100
AcDbSymbolTable
 70
     1
  0
BLOCK_RECORD
  5
1F
330
1
100
AcDbSymbolTableRecord
100
AcDbBlockTableRecord
  2
*MODEL_SPACE
  0
BLOCK_RECORD
  5
1B
330
1
100
AcDbSymbolTableRecord
100
AcDbBlockTableRecord
  2
*PAPER_SPACE
  0
ENDTAB
  0
ENDSEC
  0
SECTION
  2
BLOCKS
  0
BLOCK
  5
20
330
1F
100
AcDbEntity
  8
0
100
AcDbBlockBegin
  2
*MODEL_SPACE
 70
     0
 10
0.0
 20
0.0
 30
0.0
  3
*MODEL_SPACE
  1

  0
ENDBLK
  5
21
330
1F
100
AcDbEntity
  8
0
100
AcDbBlockEnd
  0
BLOCK
  5
1C
330
1B
100
AcDbEntity
 67
     1
  8
0
100
AcDbBlockBegin
  2
*PAPER_SPACE
  1

  0
ENDBLK
  5
1D
330
1B
100
AcDbEntity
 67
     1
  8
0
100
AcDbBlockEnd
  0
ENDSEC
  0
SECTION
  2
ENTITIES
  0
LWPOLYLINE
  5
100
100
AcDbEntity
  8
Layer_1
 62
7
100
AcDbPolyline
 90
97
 70
1
 10
22.380016
 20
-21.339777
 30
0.0
 10
19.874091
 20
-23.293818
 30
0.0
 10
17.229256
 20
-24.337795
 30
0.0
 10
14.591308
 20
-24.671893
 30
0.0
 10
12.106044
 20
-24.496298
 30
0.0
 10
9.919264
 20
-24.011237
 30
0.0
 10
8.176766
 20
-23.416896
 30
0.0
 10
7.024348
 20
-22.913482
 30
0.0
 10
6.607809
 20
-22.701180
 30
0.0
 10
6.382783
 20
-23.102810
 30
0.0
 10
5.710528
 20
-24.142121
 30
0.0
 10
4.595281
 20
-25.570658
 30
0.0
 10
3.041277
 20
-27.140051
 30
0.0
 10
1.052751
 20
-28.601844
 30
0.0
 10
-1.366059
 20
-29.707648
 30
0.0
 10
-4.210919
 20
-30.209050
 30
0.0
 10
-7.477593
 20
-29.857615
 30
0.0
 10
-10.529063
 20
-28.646888
 30
0.0
 10
-12.806568
 20
-26.882860
 30
0.0
 10
-14.423255
 20
-24.785817
 30
0.0
 10
-15.492273
 20
-22.576089
 30
0.0
 10
-16.126771
 20
-20.473916
 30
0.0
 10
-16.439895
 20
-18.699628
 30
0.0
 10
-16.544794
 20
-17.473510
 30
0.0
 10
-16.554617
 20
-17.015847
 30
0.0
 10
-17.019336
 20
-17.021154
 30
0.0
 10
-18.266717
 20
-16.958155
 30
0.0
 10
-20.076593
 20
-16.708505
 30
0.0
 10
-22.228799
 20
-16.153834
 30
0.0
 10
-24.503169
 20
-15.175796
 30
0.0
 10
-26.679538
 20
-13.656024
 30
0.0
 10
-28.537741
 20
-11.476125
 30
0.0
 10
-29.857611
 20
-8.517799
 30
0.0
 10
-30.318184
 20
-5.314312
 30
0.0
 10
-29.910967
 20
-2.488152
 30
0.0
 10
-28.884504
 20
-0.054668
 30
0.0
 10
-27.487333
 20
1.970797
 30
0.0
 10
-25.967999
 20
3.572894
 30
0.0
 10
-24.575042
 20
4.736257
 30
0.0
 10
-23.557004
 20
5.445541
 30
0.0
 10
-23.162426
 20
5.685378
 30
0.0
 10
-23.403597
 20
6.083243
 30
0.0
 10
-23.982312
 20
7.189254
 30
0.0
 10
-24.681374
 20
8.872049
 30
0.0
 10
-25.283586
 20
11.000255
 30
0.0
 10
-25.571754
 20
13.442510
 30
0.0
 10
-25.328679
 20
16.067441
 30
0.0
 10
-24.337165
 20
18.743681
 30
0.0
 10
-22.380017
 20
21.339864
 30
0.0
 10
-19.778775
 20
23.321890
 30
0.0
 10
-17.089199
 20
24.378993
 30
0.0
 10
-14.445414
 20
24.714797
 30
0.0
 10
-11.981548
 20
24.532928
 30
0.0
 10
-9.831728
 20
24.037014
 30
0.0
 10
-8.130080
 20
23.430679
 30
0.0
 10
-7.010732
 20
22.917554
 30
0.0
 10
-6.607810
 20
22.701262
 30
0.0
 10
-6.415332
 20
23.119361
 30
0.0
 10
-5.822123
 20
24.198646
 30
0.0
 10
-4.804521
 20
25.676586
 30
0.0
 10
-3.338863
 20
27.290655
 30
0.0
 10
-1.401485
 20
28.778327
 30
0.0
 10
1.031275
 20
29.877075
 30
0.0
 10
3.983080
 20
30.324374
 30
0.0
 10
7.477593
 20
29.857698
 30
0.0
 10
10.756902
 20
28.531722
 30
0.0
 10
13.141351
 20
26.713600
 30
0.0
 10
14.771988
 20
24.609512
 30
0.0
 10
15.789859
 20
22.425638
 30
0.0
 10
16.336009
 20
20.368161
 30
0.0
 10
16.551489
 20
18.643264
 30
0.0
 10
16.577343
 20
17.457125
 30
0.0
 10
16.554616
 20
17.015927
 30
0.0
 10
17.027253
 20
17.020173
 30
0.0
 10
18.293859
 20
16.954587
 30
0.0
 10
20.127486
 20
16.701734
 30
0.0
 10
22.301180
 20
16.144169
 30
0.0
 10
24.587990
 20
15.164444
 30
0.0
 10
26.760965
 20
13.645120
 30
0.0
 10
28.593155
 20
11.468749
 30
0.0
 10
29.857609
 20
8.517886
 30
0.0
 10
30.262764
 20
5.321881
 30
0.0
 10
29.829537
 20
2.499229
 30
0.0
 10
28.799679
 20
0.066186
 30
0.0
 10
27.414951
 20
-1.960959
 30
0.0
 10
25.917104
 20
-3.565953
 30
0.0
 10
24.547897
 20
-4.732500
 30
0.0
 10
23.549086
 20
-5.444391
 30
0.0
 10
23.162425
 20
-5.685285
 30
0.0
 10
23.389980
 20
-6.087136
 30
0.0
 10
23.935625
 20
-7.202869
 30
0.0
 10
24.593836
 20
-8.897640
 30
0.0
 10
25.159089
 20
-11.036696
 30
0.0
 10
25.425857
 20
-13.485240
 30
0.0
 10
25.188619
 20
-16.108450
 30
0.0
 10
24.241845
 20
-18.771552
 30
0.0
 10
22.380016
 20
-21.339777
 30
0.0
  0
ENDSEC
  0
SECTION
  2
OBJECTS
  0
DICTIONARY
  5
C
330
0
100
AcDbDictionary
  3
ACAD_GROUP
350
D
  3
ACAD_MLINESTYLE
350
17
  0
DICTIONARY
  5
D
330
C
100
AcDbDictionary
  0
DICTIONARY
  5
1A
330
C
100
AcDbDictionary
  0
DICTIONARY
  5
17
330
C
100
AcDbDictionary
  3
STANDARD
350
18
  0
DICTIONARY
  5
19
330
C
100
AcDbDictionary
  0
ENDSEC
  0
EOF
